# xmcd
#
# Track frame offsets:
#	150
#	25176
#	46476
#	75591
#	94579
#	123145
#	140593
#	162602
#	182673
#	217548
#	235110
#	273276
#	293982
#
# Disc length: 4251 seconds
#
# Revision: 0
# Processed by: cddbd v1.5.2PL0 Copyright (c) Steve Scherf et al.
# Submitted via: dBpowerAMP V4.0
#
DISCID=aa10990d
DTITLE=varios - salsa de oro
DYEAR=1900
DGENRE=
TTITLE0=el d8ia de la suerte
TTITLE1=la vida es un carnaval
TTITLE2=la carcel
TTITLE3=amarilla se pone
TTITLE4=rebelion
TTITLE5=ah ah oh no
TTITLE6=quierela que la tienes
TTITLE7=el todo poderoso
TTITLE8=juanito alimaña
TTITLE9=cha cuncha
TTITLE10=timbalero
TTITLE11=cueroi no mas
TTITLE12=la murga
EXTD=
EXTT0=
EXTT1=
EXTT2=
EXTT3=
EXTT4=
EXTT5=
EXTT6=
EXTT7=
EXTT8=
EXTT9=
EXTT10=
EXTT11=
EXTT12=
PLAYORDER=
